# xmcd
#
# Track frame offsets:
#	150
#	17257
#	29389
#	43614
#	56992
#	67883
#	82405
#	96954
#	109653
#	123558
#
# Disc length: 1828 seconds
# Revision: 0
# Processed by: cddbd v1.5.2PL0 Copyright (c) Steve Scherf et al.
# Submitted via: dBpowerAMP V12.0
#
DISCID=8407220a
DTITLE=Bob Slawson - Drugstore Cowboy
DYEAR=2010
DGENRE=Country
TTITLE0=Tennessee Walker
TTITLE1=You Should Never Cry
TTITLE2=Bob's Yodel
TTITLE3=Mary's Empty Bed
TTITLE4=Rockin' and Rollin'
TTITLE5=Doggie Yodel
TTITLE6=Stars and Planets
TTITLE7=He's Got A Way
TTITLE8=It Ain't The Fall
TTITLE9=Happy Hour
EXTD=
EXTT0=
EXTT1=
EXTT2=
EXTT3=
EXTT4=
EXTT5=
EXTT6=
EXTT7=
EXTT8=
EXTT9=
PLAYORDER=
